HIERARCHY
ROOT Hips
{
     OFFSET 20.88380 94.99020 -15.24440
     CHANNELS 6 Xposition Yposition Zposition Zrotation Xrotation Yrotation
     JOINT Spine
     {
          OFFSET 0.00000 11.89050 -0.00000
          CHANNELS 3 Zrotation Xrotation Yrotation
          JOINT Spine1
          {
               OFFSET 0.00000 25.65740 0.12766
               CHANNELS 3 Zrotation Xrotation Yrotation
               JOINT HEad
               {
                    OFFSET -0.00000 8.73416 0.01134
                    CHANNELS 3 Zrotation Xrotation Yrotation
                    End Site
                    {
                         OFFSET -0.29000 12.77420 2.51395
                    }
               }
               JOINT LeftShoulder1
               {
                    OFFSET 8.99000 -0.36225 -0.22000
                    CHANNELS 3 Zrotation Xrotation Yrotation
                    JOINT LeftArm
                    {
                         OFFSET 10.28270 -0.00338 0.32212
                         CHANNELS 3 Zrotation Xrotation Yrotation
                         JOINT LeftForeArm
                         {
                              OFFSET 32.76690 0.09914 -1.42434
                              CHANNELS 3 Zrotation Xrotation Yrotation
                              JOINT LeftHand
                              {
                                   OFFSET 27.56430 0.08536 1.02216
                                   CHANNELS 3 Zrotation Xrotation Yrotation
                                   End Site
                                   {
                                        OFFSET 16.74430 -0.60000 1.50291
                                   }
                              }
                         }
                    }
               }
               JOINT RightShoulder
               {
                    OFFSET -8.99000 -0.36225 -0.22000
                    CHANNELS 3 Zrotation Xrotation Yrotation
                    JOINT RightArm
                    {
                         OFFSET -10.28270 -0.00338 0.32212
                         CHANNELS 3 Zrotation Xrotation Yrotation
                         JOINT RightForeArm
                         {
                              OFFSET -32.89710 0.09914 -1.42434
                              CHANNELS 3 Zrotation Xrotation Yrotation
                              JOINT RightHand
                              {
                                   OFFSET -27.49210 0.08536 1.02216
                                   CHANNELS 3 Zrotation Xrotation Yrotation
                                   End Site
                                   {
                                        OFFSET -16.63120 -0.60000 1.50291
                                   }
                              }
                         }
                    }
               }
          }
     }
     JOINT LeftUpLeg
     {
          OFFSET 8.94580 -8.66707 0.10165
          CHANNELS 3 Zrotation Xrotation Yrotation
          JOINT LeftLeg
          {
               OFFSET -0.00000 -44.42270 1.37270
               CHANNELS 3 Zrotation Xrotation Yrotation
               JOINT LeftFoot
               {
                    OFFSET -0.25355 -42.09240 -1.46059
                    CHANNELS 3 Zrotation Xrotation Yrotation
                    JOINT LeftToes
                    {
                         OFFSET -0.04000 -4.41509 8.49910
                         CHANNELS 3 Zrotation Xrotation Yrotation
                         End Site
                         {
                              OFFSET 0.08000 -0.04745 9.77979
                         }
                    }
               }
          }
     }
     JOINT RightUpLeg
     {
          OFFSET -8.94580 -8.66707 0.10165
          CHANNELS 3 Zrotation Xrotation Yrotation
          JOINT RightLeg
          {
               OFFSET 0.00000 -44.42270 1.37270
               CHANNELS 3 Zrotation Xrotation Yrotation
               JOINT RightFoot
               {
                    OFFSET 0.25355 -42.09240 -1.46059
                    CHANNELS 3 Zrotation Xrotation Yrotation
                    JOINT RightToes
                    {
                         OFFSET 0.04000 -4.41509 8.49910
                         CHANNELS 3 Zrotation Xrotation Yrotation
                         End Site
                         {
                              OFFSET -0.08000 -0.13745 9.77979
                         }
                    }
               }
          }
     }
}
MOTION
Frames: 6
Frame Time: 0.01667
29.66370 92.47900 24.67680 -18.62630 -4.68801 -72.95380 -5.08944 6.04709 -2.11266 -7.26231 13.24350 -5.13661 1.18186 -4.08596 33.09600 -0.00000 0.00000 -0.00000 -48.34160 -64.26460 -54.63570 -86.42660 -19.19900 -93.12070 -17.74170 12.82000 -13.87870 11.49920 1.14648 5.15272 89.80180 10.16940 66.57010 27.20720 33.57210 93.09780 11.24650 11.70840 13.08900 31.10730 14.56190 -16.74660 -35.28570 11.43710 82.41320 -6.87815 2.26159 0.56654 2.13805 -30.59810 -58.13740 -35.42670 -1.25595 10.46240 47.81280 19.34540 -34.85460 -25.30980 19.75350 6.14079 5.51514 -40.83350 8.21054 
30.11110 92.55740 24.98610 -18.50920 -4.55190 -72.33170 -5.48193 6.26245 -1.46708 -7.40268 13.62180 -3.95632 2.60673 -4.29774 31.81490 -0.00000 0.00000 -0.00000 -52.48610 -62.70860 -52.67100 -84.39250 -17.12080 -90.98390 -15.52500 12.58750 -14.73040 11.89260 1.08574 4.58060 89.49930 9.94223 66.73420 27.41490 33.49510 92.63490 11.15210 11.69070 13.05580 30.95070 13.79110 -16.38000 -35.17800 11.88740 82.77130 -6.09334 2.52196 0.51064 1.59871 -31.97540 -58.74640 -35.58410 -0.77307 10.50500 47.73960 17.96150 -35.44890 -25.58070 19.83370 6.22736 5.38050 -39.64980 8.56412 
30.53510 92.65880 25.07390 -18.25670 -4.32021 -71.39290 -5.92164 6.49589 -0.90285 -7.55180 14.03110 -2.93347 4.32165 -4.92723 30.32630 -0.00000 0.00000 -0.00000 -55.79860 -60.65490 -50.67520 -81.97400 -15.45740 -89.55490 -13.34060 12.29910 -15.34230 12.39890 1.02621 4.00408 89.51480 9.64378 67.00160 27.73980 33.57570 92.27400 11.21840 11.69980 13.04740 31.03580 12.68240 -15.85440 -34.99050 12.39570 82.89360 -5.19847 3.05371 0.45180 1.05728 -33.31730 -59.27520 -35.54470 -0.40034 10.40390 47.83920 16.63360 -36.32700 -25.93280 19.98440 6.35162 5.33295 -38.51350 9.29908 
30.92900 92.77160 24.98730 -17.93890 -4.03480 -70.23560 -6.36852 6.76505 -0.40128 -7.71263 14.50680 -2.01412 6.10336 -5.92179 28.79090 -0.00000 0.00000 -0.00000 -59.16570 -58.83200 -49.43790 -78.95060 -13.60540 -87.68860 -11.16220 11.98580 -15.91810 12.87530 0.96663 3.46876 89.85090 9.33154 67.36940 28.05190 33.79790 92.07550 11.47900 11.73700 13.02660 31.30920 11.37260 -15.27010 -34.77250 12.91770 82.75850 -4.34527 3.75715 0.39427 0.57499 -34.46970 -59.72770 -35.38430 -0.13004 10.25810 48.00340 15.48960 -36.93990 -26.02580 20.18120 6.42194 5.24878 -37.35070 9.95907 
31.29180 92.87000 24.76960 -17.61640 -3.73779 -68.90460 -6.78500 7.06281 0.04807 -7.85622 15.03550 -1.17413 7.70267 -7.09928 27.29850 -0.00000 0.00000 -0.00000 -62.78010 -57.60790 -48.99860 -75.50480 -10.97900 -84.95990 -9.02136 11.65950 -16.50950 13.25350 0.90743 2.98972 90.30730 9.09091 67.80390 28.17710 34.02650 92.11060 11.86840 11.78710 12.94730 31.71480 9.93100 -14.80700 -34.56600 13.43970 82.43930 -3.62843 4.58626 0.34397 0.13125 -35.47830 -60.17880 -35.19830 0.08716 10.14260 48.15810 14.58520 -36.89540 -25.66530 20.35190 6.37019 5.07334 -36.17010 10.24690 
31.62510 92.92550 24.45090 -17.31890 -3.47109 -67.40570 -7.14702 7.36925 0.43753 -7.93016 15.57880 -0.43915 8.90472 -8.26519 25.91630 -0.00000 0.00000 -0.00000 -66.58020 -57.04910 -49.17220 -72.10940 -7.28549 -81.58360 -7.03281 11.33550 -17.03490 13.47340 0.85659 2.61938 90.72960 8.88556 68.28810 28.02160 34.21120 92.36210 12.22740 11.82430 12.79950 32.19110 8.36352 -14.59410 -34.40490 13.98850 82.02510 -3.09406 5.49449 0.30581 -0.30176 -36.39610 -60.69660 -35.08390 0.30823 10.14950 48.26580 13.88910 -36.15510 -24.96650 20.40500 6.20360 4.86229 -35.14600 10.20290 
